<svg width="343" height="39" viewBox="0 0 343 39" fill="none" xmlns="http://www.w3.org/2000/svg">
<path d="M0.998349 30.4L0.198349 20.28H0.438349C0.678349 23.32 1.77168 25.7333 3.71835 27.52C5.66502 29.28 7.89168 30.16 10.3983 30.16C12.585 30.16 14.3184 29.6 15.5984 28.48C16.8783 27.36 17.5183 25.84 17.5183 23.92C17.5183 22.6933 17.1983 21.68 16.5583 20.88C15.945 20.08 15.1317 19.48 14.1184 19.08C13.105 18.6533 11.985 18.2933 10.7583 18C9.53168 17.68 8.30502 17.3467 7.07835 17C5.85168 16.6267 4.73168 16.1733 3.71835 15.64C2.70502 15.1067 1.87835 14.32 1.23835 13.28C0.625016 12.2133 0.318349 10.92 0.318349 9.4C0.318349 7.02667 1.15835 5.13333 2.83835 3.72C4.54502 2.30667 6.73168 1.6 9.39835 1.6C10.865 1.6 12.185 1.81333 13.3583 2.24C14.5583 2.66667 15.4783 3.09333 16.1183 3.52C16.785 3.94667 17.185 4.16 17.3183 4.16C17.5583 4.16 17.705 3.98667 17.7583 3.64C17.8383 3.29333 17.8383 2.61333 17.7583 1.6H17.9984L18.7183 10.76H18.4784C18.265 8.17333 17.225 6.04 15.3583 4.36C13.5183 2.68 11.5317 1.84 9.39835 1.84C7.31835 1.84 5.66502 2.34667 4.43835 3.36C3.23835 4.34667 2.63835 5.69333 2.63835 7.4C2.63835 8.62667 2.94502 9.64 3.55835 10.44C4.19835 11.24 5.02502 11.8533 6.03835 12.28C7.05168 12.68 8.17168 13.04 9.39835 13.36C10.625 13.6533 11.8517 13.9867 13.0783 14.36C14.305 14.7067 15.425 15.1467 16.4384 15.68C17.4517 16.2133 18.265 17.0133 18.8783 18.08C19.5183 19.12 19.8383 20.4 19.8383 21.92C19.8383 24.48 18.9583 26.5333 17.1983 28.08C15.465 29.6267 13.1983 30.4 10.3983 30.4C8.82502 30.4 7.37168 30.1867 6.03835 29.76C4.70502 29.3333 3.67835 28.9067 2.95835 28.48C2.23835 28.0533 1.81168 27.84 1.67835 27.84C1.43835 27.84 1.27835 28.0133 1.19835 28.36C1.14502 28.7067 1.15835 29.3867 1.23835 30.4H0.998349ZM21.9299 29.76C23.5832 29.76 24.5699 29.72 24.8899 29.64C25.2099 29.56 25.3699 29.28 25.3699 28.8V1.6C25.3699 1.12 25.2099 0.839999 24.8899 0.76C24.5699 0.679999 23.5832 0.639999 21.9299 0.639999V0.4H28.9699V15.76C29.4232 13.8667 30.3699 12.32 31.8099 11.12C33.2499 9.89333 34.9566 9.28 36.9299 9.28C38.6899 9.28 40.1699 9.82667 41.3699 10.92C42.5966 11.9867 43.2099 13.5867 43.2099 15.72V28.8C43.2099 29.28 43.3566 29.56 43.6499 29.64C43.9432 29.72 44.8899 29.76 46.4899 29.76V30H36.6499V29.76C38.0899 29.76 38.9432 29.72 39.2099 29.64C39.4766 29.56 39.6099 29.28 39.6099 28.8V16.24C39.6099 14.2933 39.1832 12.8267 38.3299 11.84C37.4766 10.8267 36.3699 10.32 35.0099 10.32C33.4099 10.32 31.9966 11.0667 30.7699 12.56C29.5699 14.0267 28.9699 15.8133 28.9699 17.92V28.8C28.9699 29.28 29.1032 29.56 29.3699 29.64C29.6632 29.72 30.5299 29.76 31.9699 29.76V30H21.9299V29.76ZM65.7205 27.48C63.9072 29.4267 61.4539 30.4 58.3605 30.4C55.2672 30.4 52.8139 29.44 51.0005 27.52C49.1872 25.5733 48.2805 23.0133 48.2805 19.84C48.2805 16.6667 49.1872 14.12 51.0005 12.2C52.8139 10.2533 55.2672 9.28 58.3605 9.28C61.4539 9.28 63.8939 10.2533 65.6805 12.2C67.4939 14.12 68.4005 16.6667 68.4005 19.84C68.4005 23.0133 67.5072 25.56 65.7205 27.48ZM53.5605 12.36C52.5472 14.28 52.0405 16.7733 52.0405 19.84C52.0405 22.9067 52.5339 25.4 53.5205 27.32C54.5339 29.2133 56.1472 30.16 58.3605 30.16C60.5472 30.16 62.1339 29.2133 63.1205 27.32C64.1339 25.4 64.6405 22.9067 64.6405 19.84C64.6405 16.7733 64.1339 14.2933 63.1205 12.4C62.1339 10.48 60.5472 9.52 58.3605 9.52C56.1472 9.52 54.5472 10.4667 53.5605 12.36ZM70.3283 38.16C71.9817 38.16 72.9683 38.12 73.2883 38.04C73.6083 37.96 73.7683 37.68 73.7683 37.2V10.88C73.7683 10.4 73.6083 10.12 73.2883 10.04C72.9683 9.96 71.9817 9.92 70.3283 9.92V9.68H77.3683V16.04C78.115 11.5333 80.5817 9.28 84.7683 9.28C87.6217 9.28 89.8217 10.24 91.3684 12.16C92.9417 14.08 93.7284 16.64 93.7284 19.84C93.7284 23.04 92.9417 25.6 91.3684 27.52C89.8217 29.44 87.6217 30.4 84.7683 30.4C80.5817 30.4 78.115 28.1467 77.3683 23.64V37.2C77.3683 37.68 77.5417 37.96 77.8883 38.04C78.2617 38.12 79.4217 38.16 81.3683 38.16V38.4H70.3283V38.16ZM78.9683 12.68C77.9017 14.52 77.3683 16.9067 77.3683 19.84C77.3683 22.7733 77.9017 25.1733 78.9683 27.04C80.035 28.88 81.6083 29.8 83.6883 29.8C85.7417 29.8 87.3017 28.88 88.3683 27.04C89.435 25.1733 89.9683 22.7733 89.9683 19.84C89.9683 16.9067 89.435 14.52 88.3683 12.68C87.3283 10.84 85.7683 9.92 83.6883 9.92C81.6083 9.92 80.035 10.84 78.9683 12.68ZM108.573 29.76C110.253 29.76 111.24 29.72 111.533 29.64C111.853 29.56 112.013 29.28 112.013 28.8V3.2C112.013 2.72 111.853 2.44 111.533 2.36C111.24 2.28 110.253 2.24 108.573 2.24V2H120.053C127.12 2 130.653 4.2 130.653 8.6C130.653 10.5467 129.853 12.0933 128.253 13.24C126.653 14.36 124.467 15.08 121.693 15.4C128.573 15.8 132.013 18.2133 132.013 22.64C132.013 25.12 131.093 26.9733 129.253 28.2C127.44 29.4 124.56 30 120.613 30H108.573V29.76ZM115.933 28.8C115.933 29.28 116.053 29.56 116.293 29.64C116.56 29.72 117.36 29.76 118.693 29.76H120.613C125.6 29.76 128.093 27.3867 128.093 22.64C128.093 20.4 127.4 18.6533 126.013 17.4C124.627 16.1467 122.667 15.52 120.133 15.52V15.28C124.56 15.28 126.773 13.1067 126.773 8.76C126.773 6.68 126.213 5.08 125.093 3.96C124 2.81333 122.32 2.24 120.053 2.24H118.693C117.36 2.24 116.56 2.28 116.293 2.36C116.053 2.44 115.933 2.72 115.933 3.2V28.8ZM139.012 38.4L145.332 30H144.372L136.652 12.24C136.119 11.0933 135.692 10.4267 135.372 10.24C135.079 10.0267 134.372 9.92 133.252 9.92V9.68H143.132V9.92C141.106 9.92 140.026 10 139.892 10.16C139.812 10.2667 139.852 10.5067 140.012 10.88L146.692 26.44L151.052 15.08C151.692 13.5867 151.786 12.36 151.332 11.4C150.906 10.4133 149.906 9.92 148.332 9.92V9.68H155.932V9.92C154.199 9.92 152.652 11.68 151.292 15.2L142.412 38.4H139.012ZM184.31 30.4C180.23 30.4 176.883 29.0933 174.27 26.48C171.683 23.84 170.39 20.3467 170.39 16C170.39 11.6533 171.643 8.17333 174.15 5.56C176.683 2.92 179.937 1.6 183.91 1.6C185.297 1.6 186.617 1.81333 187.87 2.24C189.123 2.66667 190.11 3.09333 190.83 3.52C191.577 3.94667 192.017 4.16 192.15 4.16C192.417 4.16 192.577 3.98667 192.63 3.64C192.683 3.29333 192.67 2.61333 192.59 1.6H192.83L193.63 11.72H193.39C193.15 9 192.057 6.68 190.11 4.76C188.163 2.81333 186.097 1.84 183.91 1.84C180.763 1.84 178.403 3.13333 176.83 5.72C175.257 8.28 174.47 11.7067 174.47 16C174.47 20.2667 175.297 23.6933 176.95 26.28C178.603 28.8667 181.057 30.16 184.31 30.16C186.523 30.16 188.63 29.1867 190.63 27.24C192.657 25.2667 193.79 22.8667 194.03 20.04H194.27L193.47 30.4H193.23C193.337 29.3867 193.35 28.7067 193.27 28.36C193.217 28.0133 193.07 27.84 192.83 27.84C192.67 27.84 192.203 28.0533 191.43 28.48C190.657 28.9067 189.617 29.3333 188.31 29.76C187.03 30.1867 185.697 30.4 184.31 30.4ZM202.777 30.4C200.937 30.4 199.511 29.9867 198.497 29.16C197.511 28.3067 197.017 27.1333 197.017 25.64C197.017 24.1467 197.551 23.04 198.617 22.32H202.857C201.471 21.9733 200.364 21.2667 199.537 20.2C198.711 19.1333 198.297 17.8533 198.297 16.36C198.297 14.2533 199.004 12.5467 200.417 11.24C201.831 9.93333 203.751 9.28 206.177 9.28C208.391 9.28 210.191 9.96 211.577 11.32C212.964 12.68 213.657 14.5067 213.657 16.8V25.24C213.657 27.6933 214.391 28.92 215.857 28.92C217.351 28.92 218.097 27.5067 218.097 24.68H218.337C218.337 26.4933 218.017 27.9067 217.377 28.92C216.764 29.9067 215.617 30.4 213.937 30.4C212.791 30.4 211.857 30.0533 211.137 29.36C210.417 28.64 210.057 27.5733 210.057 26.16V24.52C209.657 26.1733 208.777 27.5733 207.417 28.72C206.057 29.84 204.511 30.4 202.777 30.4ZM198.537 16.36C198.537 18.12 199.124 19.56 200.297 20.68C201.471 21.7733 202.964 22.32 204.777 22.32H210.057V17.28C210.057 15.28 209.524 13.6933 208.457 12.52C207.417 11.3467 206.044 10.76 204.337 10.76C202.657 10.76 201.271 11.2533 200.177 12.24C199.084 13.2 198.537 14.5733 198.537 16.36ZM200.537 25.44C200.537 26.5067 200.884 27.36 201.577 28C202.297 28.6133 203.271 28.92 204.497 28.92C206.017 28.92 207.324 28.28 208.417 27C209.511 25.72 210.057 24.24 210.057 22.56H201.697C200.924 23.28 200.537 24.24 200.537 25.44ZM226.186 30.4C224.879 30.4 223.746 30.0133 222.786 29.24C221.852 28.4667 221.386 27.2267 221.386 25.52V9.92H218.066V9.68C220.492 9.68 222.186 9.26667 223.146 8.44C224.132 7.61333 224.666 5.97333 224.746 3.52H224.986V9.68H230.586V9.92H224.986V24.56C224.986 27.4667 225.999 28.92 228.026 28.92C230.132 28.92 231.186 27.1333 231.186 23.56H231.426C231.426 25.88 230.999 27.6 230.146 28.72C229.319 29.84 227.999 30.4 226.186 30.4ZM243.906 30.4C240.732 30.4 238.266 29.44 236.506 27.52C234.772 25.5733 233.906 22.96 233.906 19.68C233.906 16.48 234.706 13.9467 236.306 12.08C237.932 10.2133 240.026 9.28 242.586 9.28C245.012 9.28 246.946 10.0533 248.386 11.6C249.826 13.12 250.572 15.08 250.626 17.48H253.386V17.72H237.706C237.679 18.0133 237.666 18.4667 237.666 19.08C237.666 22.0933 238.332 24.4933 239.666 26.28C240.999 28.04 243.012 28.92 245.706 28.92C247.466 28.92 248.986 28.3467 250.266 27.2C251.572 26.0267 252.359 24.4533 252.626 22.48H252.866C252.599 24.6933 251.639 26.5733 249.986 28.12C248.359 29.64 246.332 30.4 243.906 30.4ZM237.706 17.48H247.146C247.092 12.1733 245.572 9.52 242.586 9.52C239.572 9.52 237.946 12.1733 237.706 17.48ZM266.092 38.8C262.759 38.8 260.119 38.04 258.172 36.52C256.252 35 255.292 32.84 255.292 30.04C255.292 28.0933 255.839 26.4133 256.932 25C258.025 23.5867 259.105 22.5867 260.172 22C257.985 20.7467 256.892 18.84 256.892 16.28C256.892 14.2 257.679 12.52 259.252 11.24C260.852 9.93333 263.065 9.28 265.892 9.28C267.359 9.28 268.705 9.49333 269.932 9.92C269.292 9.30667 268.972 8.49333 268.972 7.48C268.972 6.54667 269.305 5.78667 269.972 5.2C270.639 4.58667 271.479 4.28 272.492 4.28C273.665 4.28 274.585 4.58667 275.252 5.2C275.945 5.78667 276.292 6.50666 276.292 7.36C276.292 7.89333 276.132 8.33333 275.812 8.68C275.519 9 275.119 9.16 274.612 9.16C274.132 9.16 273.745 9.01333 273.452 8.72C273.159 8.4 273.012 7.98667 273.012 7.48C273.012 7.05333 273.185 6.68 273.532 6.36C273.905 6.04 274.092 5.8 274.092 5.64C274.092 5.32 273.932 5.05333 273.612 4.84C273.292 4.62667 272.879 4.52 272.372 4.52C271.519 4.52 270.772 4.8 270.132 5.36C269.519 5.92 269.212 6.62667 269.212 7.48C269.212 8.81333 269.719 9.73333 270.732 10.24C273.479 11.4667 274.852 13.48 274.852 16.28C274.852 18.36 274.065 20.0533 272.492 21.36C270.919 22.64 268.719 23.28 265.892 23.28C263.652 23.28 261.825 22.8933 260.412 22.12C259.505 22.6 259.052 23.2533 259.052 24.08C259.052 25.0133 259.732 25.5733 261.092 25.76C262.452 25.92 264.105 25.8667 266.052 25.6C266.372 25.5733 266.612 25.56 266.772 25.56C268.612 25.4 270.225 25.4667 271.612 25.76C273.025 26.0267 274.185 26.6133 275.092 27.52C275.999 28.4267 276.452 29.64 276.452 31.16C276.452 33.4533 275.479 35.2933 273.532 36.68C271.612 38.0933 269.132 38.8 266.092 38.8ZM255.532 30.04C255.532 32.76 256.479 34.8533 258.372 36.32C260.265 37.8133 262.839 38.56 266.092 38.56C268.492 38.56 270.425 38.0533 271.892 37.04C273.359 36.0533 274.092 34.6933 274.092 32.96C274.092 29.9733 271.492 28.68 266.292 29.08C265.545 29.1333 265.012 29.1733 264.692 29.2C264.372 29.2267 263.879 29.2533 263.212 29.28C262.545 29.3067 262.052 29.3067 261.732 29.28C261.439 29.2267 261.039 29.16 260.532 29.08C260.025 29 259.652 28.88 259.412 28.72C259.172 28.56 258.905 28.3733 258.612 28.16C258.345 27.92 258.159 27.6267 258.052 27.28C257.945 26.9333 257.892 26.5333 257.892 26.08C257.892 25.04 258.292 24.0267 259.092 23.04C256.719 25.0133 255.532 27.3467 255.532 30.04ZM265.892 9.52C262.399 9.52 260.652 11.7733 260.652 16.28C260.652 20.7867 262.399 23.04 265.892 23.04C269.359 23.04 271.092 20.7867 271.092 16.28C271.092 11.7733 269.359 9.52 265.892 9.52ZM296.541 27.48C294.728 29.4267 292.274 30.4 289.181 30.4C286.088 30.4 283.634 29.44 281.821 27.52C280.008 25.5733 279.101 23.0133 279.101 19.84C279.101 16.6667 280.008 14.12 281.821 12.2C283.634 10.2533 286.088 9.28 289.181 9.28C292.274 9.28 294.714 10.2533 296.501 12.2C298.314 14.12 299.221 16.6667 299.221 19.84C299.221 23.0133 298.328 25.56 296.541 27.48ZM284.381 12.36C283.368 14.28 282.861 16.7733 282.861 19.84C282.861 22.9067 283.354 25.4 284.341 27.32C285.354 29.2133 286.968 30.16 289.181 30.16C291.368 30.16 292.954 29.2133 293.941 27.32C294.954 25.4 295.461 22.9067 295.461 19.84C295.461 16.7733 294.954 14.2933 293.941 12.4C292.954 10.48 291.368 9.52 289.181 9.52C286.968 9.52 285.368 10.4667 284.381 12.36ZM301.383 29.76C303.036 29.76 304.023 29.72 304.343 29.64C304.663 29.56 304.823 29.28 304.823 28.8V10.88C304.823 10.4 304.663 10.12 304.343 10.04C304.023 9.96 303.036 9.92 301.383 9.92V9.68H308.423V19.76C308.93 17.5733 309.983 15.4 311.583 13.24C313.183 11.0533 314.996 9.73333 317.023 9.28L317.623 13C314.69 13.56 312.423 14.6 310.823 16.12C309.223 17.64 308.423 19.4533 308.423 21.56V28.8C308.423 29.28 308.596 29.56 308.943 29.64C309.316 29.72 310.476 29.76 312.423 29.76V30H301.383V29.76ZM325.145 38.4L331.465 30H330.505L322.785 12.24C322.252 11.0933 321.825 10.4267 321.505 10.24C321.212 10.0267 320.505 9.92 319.385 9.92V9.68H329.265V9.92C327.239 9.92 326.159 10 326.025 10.16C325.945 10.2667 325.985 10.5067 326.145 10.88L332.825 26.44L337.185 15.08C337.825 13.5867 337.919 12.36 337.465 11.4C337.039 10.4133 336.039 9.92 334.465 9.92V9.68H342.065V9.92C340.332 9.92 338.785 11.68 337.425 15.2L328.545 38.4H325.145Z" fill="black"/>
</svg>
