<svg width="32" height="32" viewBox="0 0 32 32" fill="none" xmlns="http://www.w3.org/2000/svg">
<path d="M25.456 13.9936L21.7256 9.47832C21.7105 9.46065 21.6918 9.44639 21.6708 9.43665C21.6497 9.4269 21.6268 9.4219 21.6036 9.42188H10.4124C10.3895 9.42192 10.3669 9.427 10.3462 9.43676C10.3255 9.44651 10.3073 9.4607 10.2927 9.47832L6.56225 13.9936C6.53934 14.0221 6.52686 14.0575 6.52686 14.094C6.52686 14.1306 6.53934 14.166 6.56225 14.1945L15.8883 25.4941C15.8988 25.5056 15.911 25.5155 15.9244 25.5234H15.9402C15.9589 25.5313 15.9787 25.5359 15.999 25.537V25.537C16.0192 25.5359 16.0391 25.5313 16.0577 25.5234H16.0735L16.1096 25.4941L25.4357 14.1945C25.4616 14.1684 25.4777 14.1343 25.4814 14.0977C25.4851 14.0611 25.4762 14.0244 25.456 13.9936V13.9936ZM18.5619 14.2509L16.0057 24.7423L13.366 14.2509H18.5619ZM13.4495 13.9372L16.0057 9.87341L18.4897 13.9372H13.4495ZM21.6217 9.83945L25.0089 13.9372H19.0497L21.6217 9.83945ZM18.7629 13.7972L16.279 9.7334H21.3123L18.7629 13.7972ZM13.1673 13.7972L10.6833 9.7334H15.7167L13.1673 13.7972ZM12.8873 13.9372H7.01613L10.4033 9.84397L12.8873 13.9372ZM13.0431 14.2509L15.6873 24.7603L7.01613 14.2509H13.0431ZM18.8826 14.2509H25.0021L16.3219 24.7694L18.8826 14.2509Z" fill="black"/>
<path d="M16.0011 31.9999C13.8988 32.0052 11.8163 31.5937 9.87402 30.7892C7.93176 29.9847 6.16833 28.8033 4.68568 27.3131C3.19549 25.8307 2.01409 24.0675 1.20982 22.1256C0.405548 20.1837 -0.00563155 18.1017 7.42181e-05 16C-0.00634783 13.8985 0.404063 11.8166 1.20756 9.87475C2.01105 7.93289 3.19168 6.16964 4.68116 4.6869C6.1635 3.1963 7.9269 2.01454 9.86922 1.21003C11.8115 0.40551 13.8942 -0.00571741 15.9966 6.54322e-05C18.0991 -0.00596695 20.1818 0.405165 22.1241 1.20969C24.0665 2.01422 25.8299 3.1961 27.3121 4.6869C28.8032 6.16878 29.9853 7.93181 30.79 9.87376C31.5947 11.8157 32.006 13.8979 31.9999 16C32.0057 18.1019 31.5943 20.1842 30.7897 22.1261C29.985 24.0681 28.803 25.8311 27.3121 27.3131C25.83 28.8029 24.0673 29.9841 22.1259 30.7886C20.1844 31.593 18.1027 32.0048 16.0011 31.9999V31.9999ZM16.0011 0.313799C13.9399 0.307845 11.8979 0.710873 9.99357 1.49951C8.08921 2.28814 6.3603 3.44673 4.90697 4.90814C3.44525 6.36116 2.28642 8.08974 1.49762 9.9937C0.708825 11.8977 0.30574 13.9391 0.311696 16C0.30574 18.0608 0.708825 20.1024 1.49762 22.0063C2.28642 23.9103 3.44525 25.6388 4.90697 27.0919C6.3603 28.5533 8.08921 29.7118 9.99357 30.5004C11.8979 31.289 13.9399 31.6921 16.0011 31.6861C18.0624 31.6921 20.1043 31.289 22.0087 30.5004C23.913 29.7118 25.642 28.5533 27.0953 27.0919C28.557 25.6388 29.7158 23.9103 30.5046 22.0063C31.2934 20.1024 31.6965 18.0608 31.6906 16C31.6965 13.9391 31.2934 11.8977 30.5046 9.9937C29.7158 8.08974 28.557 6.36116 27.0953 4.90814C25.642 3.44673 23.913 2.28814 22.0087 1.49951C20.1043 0.710873 18.0624 0.307845 16.0011 0.313799V0.313799Z" fill="black"/>
</svg>
