<svg width="115" height="17" viewBox="0 0 115 17" fill="none" xmlns="http://www.w3.org/2000/svg">
<path d="M16.6657 7.11663C16.6452 7.30451 16.5518 7.47688 16.4057 7.59678L12.7695 11.1396L13.6313 16.1439C13.6394 16.2104 13.6429 16.2774 13.6418 16.3443C13.6447 16.469 13.608 16.5915 13.5369 16.694C13.5024 16.7421 13.4564 16.7807 13.4029 16.8062C13.3495 16.8317 13.2904 16.8432 13.2313 16.8396C13.0901 16.8364 12.9522 16.7962 12.8313 16.7231L8.33227 14.3631L3.83553 16.7243C3.71393 16.7957 3.57647 16.8357 3.43553 16.8408C3.37506 16.8446 3.31459 16.8333 3.2596 16.8079C3.20462 16.7825 3.15686 16.7437 3.12067 16.6951C3.04929 16.5927 3.01215 16.4703 3.01454 16.3455C3.01702 16.2783 3.02364 16.2114 3.03437 16.1451L3.89617 11.1408L0.250726 7.59678C0.111149 7.4728 0.0219364 7.30196 0 7.11663C0 6.86956 0.186976 6.71612 0.560927 6.65629L5.58944 5.92558L7.84248 1.37116C7.9692 1.09768 8.13247 0.960938 8.33227 0.960938C8.53208 0.960938 8.69573 1.09768 8.82323 1.37116L11.0786 5.92558L16.1059 6.65629C16.4799 6.71612 16.6669 6.86956 16.6669 7.11663H16.6657Z" fill="#111111"/>
<path d="M41.1227 7.11663C41.1022 7.30451 41.0089 7.47688 40.8627 7.59678L37.2266 11.1396L38.0884 16.1439C38.0964 16.2104 38.0999 16.2774 38.0989 16.3443C38.1018 16.469 38.065 16.5915 37.9939 16.694C37.9595 16.7421 37.9134 16.7807 37.8599 16.8062C37.8065 16.8317 37.7475 16.8432 37.6884 16.8396C37.5471 16.8364 37.4092 16.7962 37.2884 16.7231L32.7893 14.3631L28.2926 16.7243C28.171 16.7957 28.0335 16.8357 27.8926 16.8408C27.8321 16.8446 27.7716 16.8333 27.7166 16.8079C27.6616 16.7825 27.6139 16.7437 27.5777 16.6951C27.5063 16.5927 27.4692 16.4703 27.4716 16.3455C27.474 16.2783 27.4807 16.2114 27.4914 16.1451L28.3532 11.1408L24.7078 7.59678C24.5682 7.4728 24.479 7.30196 24.457 7.11663C24.457 6.86956 24.644 6.71612 25.018 6.65629L30.0465 5.92558L32.2995 1.37116C32.4262 1.09768 32.5895 0.960938 32.7893 0.960938C32.9891 0.960938 33.1528 1.09768 33.2803 1.37116L35.5356 5.92558L40.563 6.65629C40.9369 6.71612 41.1239 6.86956 41.1239 7.11663H41.1227Z" fill="#111111"/>
<path d="M65.5798 7.11663C65.5593 7.30451 65.4659 7.47688 65.3197 7.59678L61.6836 11.1396L62.5454 16.1439C62.5534 16.2104 62.5569 16.2774 62.5559 16.3443C62.5588 16.469 62.522 16.5915 62.4509 16.694C62.4165 16.7421 62.3704 16.7807 62.317 16.8062C62.2635 16.8317 62.2045 16.8432 62.1454 16.8396C62.0042 16.8364 61.8663 16.7962 61.7454 16.7231L57.2463 14.3631L52.7496 16.7243C52.628 16.7957 52.4905 16.8357 52.3496 16.8408C52.2891 16.8446 52.2287 16.8333 52.1737 16.8079C52.1187 16.7825 52.0709 16.7437 52.0347 16.6951C51.9634 16.5927 51.9262 16.4703 51.9286 16.3455C51.9311 16.2783 51.9377 16.2114 51.9484 16.1451L52.8102 11.1408L49.1648 7.59678C49.0252 7.4728 48.936 7.30196 48.9141 7.11663C48.9141 6.86956 49.101 6.71612 49.475 6.65629L54.5035 5.92558L56.7565 1.37116C56.8833 1.09768 57.0465 0.960938 57.2463 0.960938C57.4461 0.960938 57.6098 1.09768 57.7373 1.37116L59.9927 5.92558L65.02 6.65629C65.394 6.71612 65.5809 6.86956 65.5809 7.11663H65.5798Z" fill="#111111"/>
<path d="M90.0368 7.11663C90.0163 7.30451 89.9229 7.47688 89.7767 7.59678L86.1406 11.1396L87.0024 16.1439C87.0104 16.2104 87.014 16.2774 87.0129 16.3443C87.0158 16.469 86.9791 16.5915 86.908 16.694C86.8735 16.7421 86.8274 16.7807 86.774 16.8062C86.7206 16.8317 86.6615 16.8432 86.6024 16.8396C86.4612 16.8364 86.3233 16.7962 86.2024 16.7231L81.7034 14.3631L77.2066 16.7243C77.085 16.7957 76.9476 16.8357 76.8066 16.8408C76.7462 16.8446 76.6857 16.8333 76.6307 16.8079C76.5757 16.7825 76.528 16.7437 76.4918 16.6951C76.4204 16.5927 76.3832 16.4703 76.3856 16.3455C76.3881 16.2783 76.3947 16.2114 76.4055 16.1451L77.2673 11.1408L73.6218 7.59678C73.4822 7.4728 73.393 7.30196 73.3711 7.11663C73.3711 6.86956 73.5581 6.71612 73.932 6.65629L78.9605 5.92558L81.2136 1.37116C81.3403 1.09768 81.5036 0.960938 81.7034 0.960938C81.9032 0.960938 82.0668 1.09768 82.1943 1.37116L84.4497 5.92558L89.477 6.65629C89.851 6.71612 90.038 6.86956 90.038 7.11663H90.0368Z" fill="#111111"/>
<path d="M114.494 7.11663C114.473 7.30451 114.38 7.47688 114.234 7.59678L110.598 11.1396L111.459 16.1439C111.467 16.2104 111.471 16.2774 111.47 16.3443C111.473 16.469 111.436 16.5915 111.365 16.694C111.331 16.7421 111.284 16.7807 111.231 16.8062C111.178 16.8317 111.119 16.8432 111.059 16.8396C110.918 16.8364 110.78 16.7962 110.659 16.7231L106.16 14.3631L101.664 16.7243C101.542 16.7957 101.405 16.8357 101.264 16.8408C101.203 16.8446 101.143 16.8333 101.088 16.8079C101.033 16.7825 100.985 16.7437 100.949 16.6951C100.877 16.5927 100.84 16.4703 100.843 16.3455C100.845 16.2783 100.852 16.2114 100.862 16.1451L101.724 11.1408L98.0789 7.59678C97.9393 7.4728 97.8501 7.30196 97.8281 7.11663C97.8281 6.86956 98.0151 6.71612 98.3891 6.65629L103.418 5.92558L105.671 1.37116C105.797 1.09768 105.961 0.960938 106.16 0.960938C106.36 0.960938 106.524 1.09768 106.651 1.37116L108.907 5.92558L113.934 6.65629C114.308 6.71612 114.495 6.86956 114.495 7.11663H114.494Z" fill="#111111"/>
</svg>
