<svg width="208" height="29" viewBox="0 0 208 29" fill="none" xmlns="http://www.w3.org/2000/svg">
<path d="M30.143 11.1328C30.1057 11.4727 29.9366 11.7844 29.672 12.0012L23.1 18.411L24.658 27.4621C24.6722 27.5825 24.6782 27.7037 24.676 27.8249C24.6833 28.0539 24.6167 28.2792 24.486 28.4675C24.4231 28.554 24.3396 28.6234 24.243 28.6693C24.1464 28.7152 24.0398 28.7362 23.933 28.7303C23.6767 28.7223 23.4271 28.6472 23.209 28.5124L15.075 24.2402L6.938 28.5124C6.71858 28.6442 6.46972 28.7191 6.214 28.7303C6.1046 28.7374 5.99516 28.7171 5.89561 28.6712C5.79607 28.6253 5.70958 28.5553 5.644 28.4675C5.51325 28.2792 5.44632 28.054 5.453 27.8249C5.45753 27.7033 5.46955 27.5822 5.489 27.4621L7.047 18.411L0.453 12.0022C0.200555 11.7776 0.0393648 11.4682 0 11.1328C0 10.6864 0.338333 10.4089 1.015 10.3003L10.109 8.97915L14.184 0.742517C14.4133 0.247505 14.7093 0 15.072 0C15.4347 0 15.7307 0.247505 15.96 0.742517L20.036 8.98015L29.13 10.3013C29.8067 10.4099 30.145 10.6874 30.145 11.1338L30.143 11.1328Z" fill="#333333"/>
<path d="M74.3793 11.1328C74.342 11.4727 74.1729 11.7844 73.9083 12.0012L67.3363 18.411L68.8943 27.4621C68.9085 27.5825 68.9145 27.7037 68.9123 27.8249C68.9197 28.0539 68.853 28.2792 68.7223 28.4675C68.6595 28.554 68.5759 28.6234 68.4793 28.6693C68.3827 28.7152 68.2761 28.7362 68.1693 28.7303C67.9131 28.7223 67.6634 28.6472 67.4453 28.5124L59.3113 24.2402L51.1743 28.5124C50.9549 28.6442 50.706 28.7191 50.4503 28.7303C50.3409 28.7374 50.2315 28.7171 50.1319 28.6712C50.0324 28.6253 49.9459 28.5553 49.8803 28.4675C49.7496 28.2792 49.6826 28.054 49.6893 27.8249C49.6939 27.7033 49.7059 27.5822 49.7253 27.4621L51.2833 18.411L44.6893 12.0022C44.4369 11.7776 44.2757 11.4682 44.2363 11.1328C44.2363 10.6864 44.5747 10.4089 45.2513 10.3003L54.3453 8.97915L58.4203 0.742517C58.6497 0.247505 58.9457 0 59.3083 0C59.671 0 59.967 0.247505 60.1963 0.742517L64.2723 8.98015L73.3663 10.3013C74.043 10.4099 74.3813 10.6874 74.3813 11.1338L74.3793 11.1328Z" fill="#333333"/>
<path d="M118.616 11.1328C118.578 11.4727 118.409 11.7844 118.145 12.0012L111.573 18.411L113.131 27.4621C113.145 27.5825 113.151 27.7037 113.149 27.8249C113.156 28.0539 113.089 28.2792 112.959 28.4675C112.896 28.554 112.812 28.6234 112.716 28.6693C112.619 28.7152 112.512 28.7362 112.406 28.7303C112.149 28.7223 111.9 28.6472 111.682 28.5124L103.548 24.2402L95.4107 28.5124C95.1912 28.6442 94.9424 28.7191 94.6867 28.7303C94.5773 28.7374 94.4678 28.7171 94.3683 28.6712C94.2687 28.6253 94.1822 28.5553 94.1167 28.4675C93.9859 28.2792 93.919 28.054 93.9257 27.8249C93.9302 27.7033 93.9422 27.5822 93.9617 27.4621L95.5197 18.411L88.9257 12.0022C88.6732 11.7776 88.512 11.4682 88.4727 11.1328C88.4727 10.6864 88.811 10.4089 89.4877 10.3003L98.5817 8.97915L102.657 0.742517C102.886 0.247505 103.182 0 103.545 0C103.907 0 104.203 0.247505 104.433 0.742517L108.509 8.98015L117.603 10.3013C118.279 10.4099 118.618 10.6874 118.618 11.1338L118.616 11.1328Z" fill="#333333"/>
<path d="M162.852 11.1328C162.815 11.4727 162.646 11.7844 162.381 12.0012L155.809 18.411L157.367 27.4621C157.381 27.5825 157.387 27.7037 157.385 27.8249C157.392 28.0539 157.326 28.2792 157.195 28.4675C157.132 28.554 157.049 28.6234 156.952 28.6693C156.855 28.7152 156.749 28.7362 156.642 28.7303C156.386 28.7223 156.136 28.6472 155.918 28.5124L147.784 24.2402L139.647 28.5124C139.428 28.6442 139.179 28.7191 138.923 28.7303C138.814 28.7374 138.704 28.7171 138.605 28.6712C138.505 28.6253 138.419 28.5553 138.353 28.4675C138.222 28.2792 138.155 28.054 138.162 27.8249C138.167 27.7033 138.179 27.5822 138.198 27.4621L139.756 18.411L133.162 12.0022C132.91 11.7776 132.748 11.4682 132.709 11.1328C132.709 10.6864 133.047 10.4089 133.724 10.3003L142.818 8.97915L146.893 0.742517C147.122 0.247505 147.418 0 147.781 0C148.144 0 148.44 0.247505 148.669 0.742517L152.745 8.98015L161.839 10.3013C162.516 10.4099 162.854 10.6874 162.854 11.1338L162.852 11.1328Z" fill="#333333"/>
<path d="M207.09 11.1328C207.053 11.4727 206.884 11.7844 206.619 12.0012L200.047 18.411L201.605 27.4621C201.619 27.5825 201.625 27.7037 201.623 27.8249C201.631 28.0539 201.564 28.2792 201.433 28.4675C201.37 28.554 201.287 28.6234 201.19 28.6693C201.094 28.7152 200.987 28.7362 200.88 28.7303C200.624 28.7223 200.374 28.6472 200.156 28.5124L192.022 24.2402L183.885 28.5124C183.666 28.6442 183.417 28.7191 183.161 28.7303C183.052 28.7374 182.942 28.7171 182.843 28.6712C182.743 28.6253 182.657 28.5553 182.591 28.4675C182.461 28.2792 182.394 28.054 182.4 27.8249C182.405 27.7033 182.417 27.5822 182.436 27.4621L183.994 18.411L177.4 12.0022C177.148 11.7776 176.987 11.4682 176.947 11.1328C176.947 10.6864 177.286 10.4089 177.962 10.3003L187.056 8.97915L191.131 0.742517C191.361 0.247505 191.657 0 192.019 0C192.382 0 192.678 0.247505 192.907 0.742517L196.983 8.98015L206.077 10.3013C206.754 10.4099 207.092 10.6874 207.092 11.1338L207.09 11.1328Z" fill="#333333"/>
</svg>
